# xmcd
#
# Track frame offsets:
#	182
#	11492
#	24390
#	33897
#	47965
#	66587
#	76425
#	90032
#	117545
#	130742
#	147997
#	168622
#	180877
#	195977
#
# Disc length: 2878 seconds
#
# Revision: 1
# Processed by: cddbd v1.5.1PL2 Copyright (c) Steve Scherf et al.
# Submitted via: audiograbber 1.83.01
#
DISCID=b00b3c0e
DTITLE=The Osmond Brothers and Friends - Live
DYEAR=1991
DGENRE=Country
TTITLE0=The Osmond Brothers - Gonna Be A Heartache Tonight
TTITLE1=The Osmond Brothers - Where Does an Angel Go
TTITLE2=Ed Bruce - Mama Don't Let Your Babies Grow Up To Be Cowboys
TTITLE3=Patty Loveless - It's What You Don't Do
TTITLE4=The Osmond Brothers - If Every Man Had A Woman Like You
TTITLE5=Dottie West - Rocky Top
TTITLE6=Johnny Rodriguez - Desperado
TTITLE7=The Osmond Brothers - An American Trilogy
TTITLE8=The Osmond Brothers - Takin' Country To The City
TTITLE9=Ed Bruce - Memphis Roots
TTITLE10=Dottie West - Crazy
TTITLE11=Patty Loveless - Lonely Days, Lonely Nights
TTITLE12=The Osmond Brothers - Yes Ma' am
TTITLE13=The Osmond Brothers - He Ain't Heavy He's My Brother
EXTD=
EXTT0=
EXTT1=
EXTT2=
EXTT3=
EXTT4=
EXTT5=
EXTT6=
EXTT7=
EXTT8=
EXTT9=
EXTT10=
EXTT11=
EXTT12=
EXTT13=
PLAYORDER=
